<svg width="48" height="30" viewBox="0 0 48 30" fill="none" xmlns="http://www.w3.org/2000/svg">
<path d="M0.8 0.999998H8.72V22.72H22.08V29H0.8V0.999998ZM34.9759 29.56C32.7093 29.56 30.5093 29.28 28.3759 28.72C26.2426 28.16 24.5093 27.4133 23.1759 26.48L25.7759 20.64C27.0293 21.4667 28.4826 22.1333 30.1359 22.64C31.7893 23.1467 33.4159 23.4 35.0159 23.4C38.0559 23.4 39.5759 22.64 39.5759 21.12C39.5759 20.32 39.1359 19.7333 38.2559 19.36C37.4026 18.96 36.0159 18.5467 34.0959 18.12C31.9893 17.6667 30.2293 17.1867 28.8159 16.68C27.4026 16.1467 26.1893 15.3067 25.1759 14.16C24.1626 13.0133 23.6559 11.4667 23.6559 9.52C23.6559 7.81333 24.1226 6.28 25.0559 4.92C25.9893 3.53333 27.3759 2.44 29.2159 1.64C31.0826 0.839999 33.3626 0.439998 36.0559 0.439998C37.8959 0.439998 39.7093 0.653332 41.4959 1.08C43.2826 1.48 44.8559 2.08 46.2159 2.88L43.7759 8.76C41.1093 7.32 38.5226 6.6 36.0159 6.6C34.4426 6.6 33.2959 6.84 32.5759 7.32C31.8559 7.77333 31.4959 8.37333 31.4959 9.12C31.4959 9.86667 31.9226 10.4267 32.7759 10.8C33.6293 11.1733 35.0026 11.56 36.8959 11.96C39.0293 12.4133 40.7893 12.9067 42.1759 13.44C43.5893 13.9467 44.8026 14.7733 45.8159 15.92C46.8559 17.04 47.3759 18.5733 47.3759 20.52C47.3759 22.2 46.9093 23.72 45.9759 25.08C45.0426 26.44 43.6426 27.5333 41.7759 28.36C39.9093 29.16 37.6426 29.56 34.9759 29.56Z" fill="white"/>
</svg>
